# xmcd
#
# Track frame offsets: 
#        150
#        16979
#        35353
#        53953
#        72030
#        94062
#        116637
#        137863
#        153167
#        168813
#        187340
#        204238
#
# Disc length: 2989 seconds
#
# Revision: 0
# Processed by: cddbd v1.5.1PL0 Copyright (c) Steve Scherf et al.
# Submitted via: ExactAudioCopy v0.95a5
#
DISCID=9d0bab0c
DTITLE=Baby Boy - Raising The Standards
DYEAR=2005
DGENRE=Latin
TTITLE0=Si Supiera Ayer
TTITLE1=Tu No Estas
TTITLE2=Tus Quince Años
TTITLE3=Me Aceptas
TTITLE4=Perdoname
TTITLE5=Solo Por Ti
TTITLE6=Nuestro Amor
TTITLE7=Una Noche Mas (Reggaeton)
TTITLE8=Dime
TTITLE9=Loquita Por Mi
TTITLE10=If I Knew Then
TTITLE11=Quiero Verte
EXTD=
EXTT0=
EXTT1=
EXTT2=
EXTT3=
EXTT4=
EXTT5=
EXTT6=
EXTT7=
EXTT8=
EXTT9=
EXTT10=
EXTT11=
PLAYORDER=
